Coordinates
version=1
nRows=13
nColumns=40
inDegrees=yes

Units are S.I. units (second, meters, Newtons, ...)
Angles are in degrees.

endheader
time	pelvis_tilt	pelvis_list	pelvis_rotation	pelvis_tx	pelvis_ty	pelvis_tz	hip_flexion_r	hip_adduction_r	hip_rotation_r	knee_angle_r	knee_angle_r_beta	ankle_angle_r	subtalar_angle_r	mtp_angle_r	hip_flexion_l	hip_adduction_l	hip_rotation_l	knee_angle_l	knee_angle_l_beta	ankle_angle_l	subtalar_angle_l	mtp_angle_l	lumbar_extension	lumbar_bending	lumbar_rotation	arm_flex_r	arm_add_r	arm_rot_r	elbow_flex_r	pro_sup_r	wrist_flex_r	wrist_dev_r	arm_flex_l	arm_add_l	arm_rot_l	elbow_flex_l	pro_sup_l	wrist_flex_l	wrist_dev_l
     57.38342857	     -2.36569811	     -4.72655193	      4.63762218	      1.02892091	      0.93312204	      0.53425676	      8.85945304	      2.70839853	    -14.42315675	     14.63551239	     14.63551239	     10.00729056	     -2.76442176	     -6.78453598	     35.23723958	    -12.19420708	      2.85381176	     55.41361577	     55.41361577	      6.85909687	    -19.04522978	     15.38694452	    -10.47807818	      5.53194606	      2.01248648	     27.98812554	    -19.88727163	     -7.04310746	     81.97994067	     44.77832482	      0.00000000	      0.00000000	     -5.15776891	     -7.54527758	      3.24492395	     27.24985216	     44.49566015	      0.00000000	      0.00000000
     57.39685714	     -2.66372832	     -4.57289553	      5.08021238	      1.02730646	      0.93315726	      0.53379265	      8.67999512	      2.56079487	    -14.65886329	     14.24301049	     14.24301049	     10.08512365	     -2.87238423	     -6.75639485	     35.55001570	    -11.51870923	      2.78388606	     51.77329421	     51.77329421	      7.39665064	    -18.93524474	     15.49094031	    -10.38100099	      5.33113845	      1.95815213	     29.33847759	    -19.93808622	     -7.36113235	     83.32642319	     44.75464238	      0.00000000	      0.00000000	     -5.94767218	     -7.22398158	      3.39384323	     27.07906963	     44.46515261	      0.00000000	      0.00000000
     57.41028571	     -2.87770721	     -4.51539473	      5.59260190	      1.02579677	      0.93316850	      0.53305949	      8.30713432	      2.49836061	    -15.15528400	     13.67111758	     13.67111758	     10.13098782	     -2.57505593	     -6.93803856	     35.59930293	    -10.82924523	      2.92907081	     47.82830499	     47.82830499	      7.41982773	    -18.71579322	     14.39965229	    -10.51122137	      5.36876842	      1.77595888	     30.08241872	    -19.62162643	     -8.08733084	     86.97676990	     44.68270296	      0.00000000	      0.00000000	     -6.93496657	     -7.04544246	      3.74233575	     27.54135896	     44.41916443	      0.00000000	      0.00000000
     57.42371429	     -3.11922442	     -4.38035413	      6.04766275	      1.02438614	      0.93309410	      0.53217578	      8.03438424	      2.32920112	    -15.56437746	     13.26053419	     13.26053419	     10.20303693	     -2.41490751	     -7.21655699	     35.40150898	    -10.04798107	      3.06744979	     43.56482841	     43.56482841	      6.96995460	    -18.33379801	     12.30175108	    -10.54751986	      5.24955345	      2.14374347	     30.45926652	    -19.81956725	     -9.05873740	     89.99151482	     44.65282072	      0.00000000	      0.00000000	     -7.55224723	     -6.93373237	      4.34647877	     27.95170168	     44.36335293	      0.00000000	      0.00000000
     57.43714286	     -3.38379132	     -4.28663104	      6.47866953	      1.02301662	      0.93287312	      0.53117818	      7.78521487	      2.20177615	    -15.91268981	     12.85009762	     12.85009762	     10.27998586	     -2.28672559	     -7.38929525	     35.13056989	     -9.26825566	      3.39381618	     39.31946884	     39.31946884	      6.68619874	    -17.59706131	     10.79138772	    -10.54011884	      5.19176391	      2.18750163	     31.26901698	    -19.75361450	     -9.55817810	     92.12587475	     44.63533478	      0.00000000	      0.00000000	     -8.07464035	     -6.76734096	      4.89681339	     27.94944307	     44.31949709	      0.00000000	      0.00000000
     57.45057143	     -3.63663103	     -4.20444202	      6.88315449	      1.02174093	      0.93261402	      0.53006340	      7.57225143	      2.07904506	    -16.16561323	     12.54799027	     12.54799027	     10.39336447	     -2.34069615	     -7.43405220	     34.78678204	     -8.55720132	      3.69303637	     35.23578132	     35.23578132	      6.92426597	    -16.13781527	     10.83992411	    -10.47859074	      5.12243911	      2.12497957	     32.34706714	    -19.68199789	     -9.70887794	     93.31475619	     44.61268790	      0.00000000	      0.00000000	     -8.57167045	     -6.61676117	      5.00955080	     27.82364815	     44.30424372	      0.00000000	      0.00000000
     57.46400000	     -3.81788213	     -4.23244826	      7.26467255	      1.02076158	      0.93224992	      0.52894510	      7.24654221	      2.08774012	    -16.51491198	     12.19402184	     12.19402184	     10.56063191	     -2.21656076	     -7.54760970	     34.33762069	     -8.04186317	      3.98646157	     31.41761557	     31.41761557	      7.11808311	    -14.29043680	     10.66425301	    -10.44428650	      5.18270381	      2.01888169	     33.24392157	    -19.46073558	     -9.83896176	     94.83203585	     44.57933590	      0.00000000	      0.00000000	     -9.03259580	     -6.48617297	      5.09526113	     27.79179505	     44.29507251	      0.00000000	      0.00000000
     57.47742857	     -3.93183029	     -4.34180889	      7.63650521	      1.02009298	      0.93182269	      0.52775943	      6.77766833	      2.18051819	    -17.11647896	     11.72053072	     11.72053072	     10.62463265	     -1.67190575	     -7.85247656	     33.77259150	     -7.73296016	      4.03525103	     27.86023133	     27.86023133	      6.79490712	    -12.11911612	      9.14779198	    -10.52501929	      5.32875642	      2.31015702	     33.51891304	    -19.50478652	    -10.39409261	     97.43957705	     44.54852800	      0.00000000	      0.00000000	     -9.38949300	     -6.44529139	      5.25901463	     28.21383868	     44.31415735	      0.00000000	      0.00000000
     57.49085714	     -4.16110342	     -4.42829634	      7.90253886	      1.01946924	      0.93116488	      0.52655613	      6.55745336	      2.23959890	    -17.28210934	     11.49225535	     11.49225535	     10.82141873	     -1.66134789	     -7.94294515	     33.35470831	     -7.39783517	      4.11215687	     24.83748878	     24.83748878	      6.82661454	    -10.24033096	      9.40569751	    -10.36239397	      5.40991169	      2.31788587	     34.33779102	    -19.41316202	    -10.46789744	     98.19416540	     44.53552380	      0.00000000	      0.00000000	     -9.61141702	     -6.38475040	      5.31492852	     28.14810001	     44.31085307	      0.00000000	      0.00000000
     57.50428571	     -4.19906420	     -4.51011291	      8.14259111	      1.01930171	      0.93072904	      0.52533867	      6.02858849	      2.33708768	    -17.54254839	     11.12329269	     11.12329269	     11.00490655	     -1.40568076	     -8.03842862	     32.74789204	     -7.20746907	      3.80532143	     22.36075452	     22.36075452	      6.80533750	     -8.23289247	      9.51809263	    -10.39017463	      5.49519112	      2.27112628	     34.91489616	    -19.07970666	    -10.47688295	     99.22214219	     44.51346535	      0.00000000	      0.00000000	     -9.84075013	     -6.42280929	      5.34932483	     28.13123243	     44.31491147	      0.00000000	      0.00000000
     57.51771429	     -4.40560932	     -4.85767916	      8.38869218	      1.01915868	      0.92968947	      0.52405845	      5.84813339	      2.65867221	    -17.79755016	     11.00220319	     11.00220319	     11.22475232	     -1.34971822	     -8.13947360	     32.60452117	     -7.19100953	      3.82178468	     20.76678630	     20.76678630	      6.69575887	     -7.05133657	      9.69021542	    -10.10872930	      5.86142523	      2.38703614	     35.46917964	    -19.03662797	    -10.51783147	     99.67486257	     44.50557147	      0.00000000	      0.00000000	     -9.92616496	     -6.46816696	      5.34354821	     28.16203085	     44.31901763	      0.00000000	      0.00000000
     57.53114286	     -4.29071144	     -4.89175664	      8.51007737	      1.01971772	      0.92940203	      0.52277414	      4.95833728	      2.75405655	    -18.19487061	     10.36111582	     10.36111582	     11.42580387	     -0.46184845	     -8.21765868	     31.86525145	     -7.19658437	      2.67587930	     19.41531674	     19.41531674	      6.34126353	     -5.16257812	      9.08114387	    -10.28320131	      5.85681291	      2.39756773	     35.63697407	    -18.59073304	    -10.57795098	    100.96006590	     44.48689309	      0.00000000	      0.00000000	    -10.07703276	     -6.54987797	      5.32102248	     28.43193375	     44.35020562	      0.00000000	      0.00000000
     57.54457143	     -4.37528272	     -5.03297258	      8.57458767	      1.02025111	      0.92860617	      0.52144417	      4.56143530	      2.88256685	    -18.31274799	     10.21625232	     10.21625232	     11.70847076	     -0.29408734	     -8.27830157	     31.40951768	     -7.17098250	      2.08674571	     18.61974938	     18.61974938	      5.90601328	     -4.69184382	      8.99754817	    -10.09715309	      5.92883455	      2.51482698	     35.79265204	    -18.38309817	    -10.55756695	    101.22856467	     44.48507076	      0.00000000	      0.00000000	    -10.02859081	     -6.70554865	      5.29514481	     28.52287707	     44.36571082	      0.00000000	      0.00000000
